<svg width="32" height="32" viewBox="0 0 32 32" fill="none" xmlns="http://www.w3.org/2000/svg">
<circle cx="16" cy="16" r="16" fill="#1278B9"/>
<path d="M10.6858 22C9.59719 22 8.62004 21.7441 7.75438 21.2322C6.88872 20.7203 6.21324 20.011 5.72794 19.1042C5.24265 18.1828 5 17.1444 5 15.989C5 14.8336 5.24265 13.8026 5.72794 12.8958C6.21324 11.989 6.88216 11.2797 7.73471 10.7678C8.60037 10.2559 9.58408 10 10.6858 10C11.722 10 12.627 10.234 13.4009 10.702C14.1878 11.17 14.7781 11.8428 15.1715 12.7203L13.2828 13.9488C12.9811 13.4077 12.6008 13.0055 12.1417 12.7422C11.6958 12.4644 11.2039 12.3254 10.6662 12.3254C9.74803 12.3254 8.98729 12.6618 8.38395 13.3346C7.78061 13.9927 7.47894 14.8775 7.47894 15.989C7.47894 17.1005 7.77405 17.9927 8.36428 18.6654C8.96762 19.3236 9.73491 19.6527 10.6662 19.6527C11.2039 19.6527 11.6958 19.521 12.1417 19.2578C12.6008 18.9799 12.9811 18.5704 13.2828 18.0293L15.1715 19.2578C14.7649 20.1353 14.1682 20.8154 13.3812 21.298C12.6073 21.766 11.7089 22 10.6858 22Z" fill="white"/>
<path d="M27 10.1316L22.4946 21.8464H19.9567L15.4513 10.1316H18.0089L21.2748 18.819L24.6391 10.1316H27Z" fill="white"/>
</svg>
